<svg width="25" height="25" viewBox="0 0 25 25" fill="none" xmlns="http://www.w3.org/2000/svg">
<path fill-rule="evenodd" clip-rule="evenodd" d="M18.64 11.431C20.2969 11.431 21.64 12.7741 21.64 14.431V20.431C21.64 22.0879 20.2969 23.431 18.64 23.431H6.63998C4.98313 23.431 3.63998 22.0879 3.63998 20.431V14.431C3.63998 12.7741 4.98313 11.431 6.63998 11.431V8.43102C6.63998 5.11731 9.32627 2.43102 12.64 2.43102C15.9537 2.43102 18.64 5.11731 18.64 8.43102V11.431ZM12.64 4.43102C14.8491 4.43102 16.64 6.22187 16.64 8.43102V11.431H8.63998V8.43102C8.63998 6.22187 10.4308 4.43102 12.64 4.43102ZM18.64 13.431H6.63998C6.0877 13.431 5.63998 13.8787 5.63998 14.431V20.431C5.63998 20.9833 6.0877 21.431 6.63998 21.431H18.64C19.1923 21.431 19.64 20.9833 19.64 20.431V14.431C19.64 13.8787 19.1923 13.431 18.64 13.431Z" fill="#171717"/>
</svg>
