<svg width="25" height="25" viewBox="0 0 25 25" fill="none" xmlns="http://www.w3.org/2000/svg">
<path fill-rule="evenodd" clip-rule="evenodd" d="M16.64 7.75861C16.64 9.96775 14.8491 11.7586 12.64 11.7586C10.4309 11.7586 8.64 9.96775 8.64 7.75861C8.64 5.54947 10.4309 3.75861 12.64 3.75861C14.8491 3.75861 16.64 5.54947 16.64 7.75861ZM14.64 7.75861C14.64 8.86318 13.7446 9.75861 12.64 9.75861C11.5354 9.75861 10.64 8.86318 10.64 7.75861C10.64 6.65404 11.5354 5.75861 12.64 5.75861C13.7446 5.75861 14.64 6.65404 14.64 7.75861Z" fill="#171717"/>
<path fill-rule="evenodd" clip-rule="evenodd" d="M16.64 15.7586C16.64 15.2063 16.1923 14.7586 15.64 14.7586H9.64C9.08772 14.7586 8.64 15.2063 8.64 15.7586V21.7586H6.64V15.7586C6.64 14.1017 7.98315 12.7586 9.64 12.7586H15.64C17.2969 12.7586 18.64 14.1017 18.64 15.7586V21.7586H16.64V15.7586Z" fill="#171717"/>
</svg>
